<svg width="844" height="837" viewBox="0 0 844 837" fill="none" xmlns="http://www.w3.org/2000/svg">
<g clip-path="url(#clip0_212_263)">
<path d="M436.725 746.623C634.807 746.623 795.38 586.046 795.38 387.963C795.38 189.881 634.807 29.3042 436.725 29.3042C238.643 29.3042 78.0649 189.881 78.0649 387.963C78.0649 586.046 238.643 746.623 436.725 746.623Z" stroke="#D1E8F7" stroke-width="1.91649" stroke-miterlimit="10"/>
<path d="M144.948 190.002C151.925 190.002 157.581 184.346 157.581 177.369C157.581 170.392 151.925 164.737 144.948 164.737C137.972 164.737 132.316 170.392 132.316 177.369C132.316 184.346 137.972 190.002 144.948 190.002Z" fill="#FEBB94"/>
<path d="M795.38 414.255C802.36 414.255 808.02 408.6 808.02 401.623C808.02 394.646 802.36 388.99 795.38 388.99C788.41 388.99 782.75 394.646 782.75 401.623C782.75 408.6 788.41 414.255 795.38 414.255Z" fill="#5661AE"/>
<path d="M451.436 759.255C458.412 759.255 464.068 753.599 464.068 746.623C464.068 739.646 458.412 733.99 451.436 733.99C444.459 733.99 438.803 739.646 438.803 746.623C438.803 753.599 444.459 759.255 451.436 759.255Z" fill="#5298E9"/>
<path d="M445.034 657.876C592.798 657.876 712.584 538.09 712.584 390.326C712.584 242.561 592.798 122.775 445.034 122.775C297.269 122.775 177.483 242.561 177.483 390.326C177.483 538.09 297.269 657.876 445.034 657.876Z" stroke="#D1E8F7" stroke-width="1.42966" stroke-miterlimit="10"/>
<path d="M707.998 453.643C713.202 453.643 717.421 449.424 717.421 444.22C717.421 439.015 713.202 434.796 707.998 434.796C702.793 434.796 698.574 439.015 698.574 444.22C698.574 449.424 702.793 453.643 707.998 453.643Z" fill="#FEBB94"/>
<path d="M196.885 500.296C202.09 500.296 206.309 496.077 206.309 490.872C206.309 485.668 202.09 481.449 196.885 481.449C191.681 481.449 187.462 485.668 187.462 490.872C187.462 496.077 191.681 500.296 196.885 500.296Z" fill="#5661AE"/>
<path d="M325.189 160.289C330.394 160.289 334.613 156.07 334.613 150.865C334.613 145.661 330.394 141.442 325.189 141.442C319.985 141.442 315.766 145.661 315.766 150.865C315.766 156.07 319.985 160.289 325.189 160.289Z" fill="#5298E9"/>
<path d="M584.284 686.603H275.305C261.9 686.603 252.078 675.736 253.367 662.331L306.112 113.636C307.4 100.231 319.311 89.3638 332.716 89.3638H641.695C655.1 89.3638 664.922 100.231 663.633 113.636L610.888 662.331C609.6 675.736 597.688 686.603 584.284 686.603Z" fill="#5298E9"/>
<path d="M562.508 686.603H253.529C240.125 686.603 230.303 675.736 231.591 662.331L284.336 113.636C285.625 100.231 297.536 89.3638 310.941 89.3638H619.92C633.324 89.3638 643.146 100.231 641.858 113.636L589.113 662.331C587.824 675.736 575.913 686.603 562.508 686.603Z" fill="url(#paint0_linear_212_263)"/>
<path d="M550.799 668.362H268.746C256.323 668.362 247.22 658.292 248.414 645.869L297.994 130.098C299.189 117.675 310.227 107.605 322.65 107.605H604.703C617.126 107.605 626.229 117.675 625.035 130.098L575.455 645.869C574.26 658.292 563.222 668.362 550.799 668.362Z" fill="white"/>
<path d="M573.418 342.237L270.847 341.968C269.611 342.002 268.382 341.771 267.242 341.292C266.103 340.813 265.078 340.096 264.238 339.189C263.397 338.283 262.76 337.207 262.368 336.035C261.976 334.862 261.839 333.619 261.966 332.389L278.278 151.26C278.573 148.646 279.815 146.231 281.769 144.47C283.722 142.708 286.252 141.723 288.882 141.698L591.453 141.967C592.689 141.934 593.918 142.164 595.058 142.643C596.197 143.123 597.222 143.839 598.062 144.746C598.903 145.653 599.54 146.728 599.932 147.901C600.324 149.073 600.461 150.316 600.334 151.546L584.022 332.676C583.727 335.289 582.485 337.704 580.531 339.466C578.578 341.227 576.048 342.213 573.418 342.237Z" fill="url(#paint1_linear_212_263)"/>
<path d="M563.891 537.406H436.006C435.063 537.425 434.126 537.24 433.26 536.866C432.394 536.492 431.619 535.936 430.986 535.236C430.354 534.536 429.879 533.709 429.594 532.809C429.308 531.91 429.22 530.96 429.333 530.024L444.861 368.488C445.085 366.485 446.029 364.632 447.518 363.274C449.007 361.916 450.938 361.146 452.953 361.106H580.839C581.782 361.087 582.718 361.271 583.584 361.646C584.45 362.02 585.225 362.576 585.858 363.276C586.491 363.976 586.966 364.803 587.251 365.702C587.536 366.602 587.625 367.552 587.511 368.488L571.983 530.024C571.759 532.026 570.815 533.879 569.326 535.237C567.838 536.595 565.906 537.366 563.891 537.406Z" fill="url(#paint2_linear_212_263)"/>
<path d="M533.403 448.294C547.826 434.549 549.395 412.785 536.909 399.685C524.422 386.584 502.609 387.107 488.187 400.852C473.765 414.598 472.195 436.361 484.682 449.462C497.168 462.563 518.981 462.04 533.403 448.294Z" stroke="#EF6A77" stroke-width="11.6898" stroke-miterlimit="10"/>
<path d="M494.583 456.348C482.619 451.182 475.036 438.901 476.413 424.573C478.238 405.584 495.111 390.191 514.1 390.191" stroke="white" stroke-width="11.6898" stroke-miterlimit="10" stroke-linecap="round"/>
<path d="M491.744 485.904H518.054" stroke="white" stroke-width="5.98374" stroke-miterlimit="10" stroke-linecap="round"/>
<path d="M488.879 515.701H515.19" stroke="white" stroke-width="5.98374" stroke-miterlimit="10" stroke-linecap="round"/>
<path opacity="0.4" d="M476.296 500.634H530.67" stroke="white" stroke-width="5.98374" stroke-miterlimit="10" stroke-linecap="round"/>
<path d="M407.495 537.406H279.61C278.667 537.425 277.73 537.24 276.864 536.866C275.999 536.492 275.223 535.936 274.59 535.236C273.958 534.536 273.483 533.709 273.198 532.809C272.912 531.91 272.824 530.96 272.937 530.024L288.465 368.488C288.689 366.485 289.633 364.632 291.122 363.274C292.611 361.916 294.542 361.146 296.557 361.106H424.443C425.386 361.087 426.322 361.271 427.188 361.646C428.054 362.02 428.829 362.576 429.462 363.276C430.095 363.976 430.57 364.803 430.855 365.702C431.14 366.602 431.229 367.552 431.115 368.488L415.587 530.024C415.363 532.026 414.419 533.879 412.93 535.237C411.442 536.595 409.51 537.366 407.495 537.406Z" fill="#FEBB94"/>
<path d="M377.007 448.294C391.429 434.549 392.998 412.785 380.512 399.685C368.026 386.584 346.212 387.107 331.79 400.852C317.368 414.598 315.799 436.361 328.285 449.462C340.771 462.563 362.585 462.04 377.007 448.294Z" stroke="#EF6A77" stroke-width="11.6898" stroke-miterlimit="10"/>
<path d="M388.781 424.573C386.956 443.562 370.083 458.955 351.094 458.955C332.105 458.955 318.191 443.562 320.017 424.573C321.842 405.584 338.715 390.191 357.704 390.191" stroke="white" stroke-width="11.6898" stroke-miterlimit="10" stroke-linecap="round"/>
<path d="M335.348 485.904H361.658" stroke="white" stroke-width="5.98374" stroke-miterlimit="10" stroke-linecap="round"/>
<path d="M332.483 515.701H358.794" stroke="white" stroke-width="5.98374" stroke-miterlimit="10" stroke-linecap="round"/>
<path opacity="0.4" d="M319.9 500.634H374.274" stroke="white" stroke-width="5.98374" stroke-miterlimit="10" stroke-linecap="round"/>
<path d="M553.171 652.944H268.117C267.223 652.961 266.336 652.787 265.516 652.432C264.695 652.077 263.96 651.55 263.36 650.887C262.761 650.224 262.311 649.44 262.04 648.587C261.77 647.735 261.686 646.835 261.793 645.947L270.3 557.461C270.512 555.563 271.407 553.806 272.818 552.519C274.229 551.232 276.059 550.502 277.969 550.464H563.022C563.916 550.446 564.803 550.621 565.624 550.976C566.444 551.331 567.179 551.857 567.779 552.521C568.378 553.184 568.828 553.968 569.099 554.82C569.369 555.673 569.453 556.573 569.346 557.461L560.84 645.947C560.627 647.845 559.733 649.601 558.322 650.888C556.911 652.176 555.08 652.906 553.171 652.944Z" fill="url(#paint3_linear_212_263)"/>
<path d="M287.968 632.427L291.989 590.595" stroke="white" stroke-width="11.6898" stroke-miterlimit="10" stroke-linecap="round"/>
<path d="M317.473 603.123L314.656 632.427" stroke="white" stroke-width="11.6898" stroke-miterlimit="10" stroke-linecap="round"/>
<path d="M343.199 613.131L341.344 632.427" stroke="white" stroke-width="11.6898" stroke-miterlimit="10" stroke-linecap="round"/>
<path d="M373.098 579.724L368.032 632.427" stroke="white" stroke-width="11.6898" stroke-miterlimit="10" stroke-linecap="round"/>
<path d="M396.575 613.131L394.72 632.427" stroke="white" stroke-width="11.6898" stroke-miterlimit="10" stroke-linecap="round"/>
<path d="M426.251 582.052L421.408 632.427" stroke="white" stroke-width="11.6898" stroke-miterlimit="10" stroke-linecap="round"/>
<path d="M450.107 611.511L448.096 632.427" stroke="white" stroke-width="11.6898" stroke-miterlimit="10" stroke-linecap="round"/>
<path d="M475.855 621.285L474.784 632.427" stroke="white" stroke-width="11.6898" stroke-miterlimit="10" stroke-linecap="round"/>
<path d="M505.493 590.595L501.472 632.427" stroke="white" stroke-width="11.6898" stroke-miterlimit="10" stroke-linecap="round"/>
<path d="M533.712 574.667L528.16 632.427" stroke="white" stroke-width="11.6898" stroke-miterlimit="10" stroke-linecap="round"/>
<path d="M295.355 314.462L311.375 339.557C312.098 340.69 312.344 342.062 312.06 343.375C311.775 344.689 310.984 345.836 309.857 346.569L307.268 348.251C302.934 351.067 297.725 352.214 292.609 351.479C287.493 350.743 282.818 348.175 279.453 344.251L258.194 319.46L295.355 314.462Z" fill="#FFCCB3"/>
<path d="M283.131 324.119C283.131 324.119 289.063 344.487 300.98 351.021C304.074 349.823 307.047 348.332 309.857 346.569L296.494 324.119" fill="#FCBA9F"/>
<path d="M9.06396 415.715L71.989 385.56C77.918 382.719 82.931 378.271 86.459 372.723L147.247 277.099C151.031 271.146 156.52 266.469 162.999 263.678L250.552 225.958L231.808 367.707L231.478 372.943C231.478 372.943 208.321 432.919 151.563 454.708L60.818 510.211L9.06396 415.715Z" fill="#FFCCB3"/>
<path d="M77.5429 382.233C77.5429 382.233 107.309 456.529 151.563 454.708L123.308 471.99C123.308 471.99 27.4049 454.2 63.3039 389.575L77.5429 382.233Z" fill="#FCBA9F"/>
<path d="M237 252.191C237 252.191 206.044 270.949 207.686 314.462L244.861 300.57L237 252.191Z" fill="#FCBA9F"/>
<path d="M314.764 314.462L330.784 339.557C331.507 340.69 331.753 342.062 331.469 343.375C331.185 344.689 330.393 345.836 329.266 346.569L326.677 348.251C322.343 351.067 317.134 352.214 312.018 351.479C306.902 350.743 302.227 348.175 298.862 344.251L277.604 319.46L314.764 314.462Z" fill="#FFCCB3"/>
<path d="M551.596 324.358L249.025 324.089C247.789 324.122 246.56 323.892 245.421 323.412C244.281 322.933 243.257 322.216 242.416 321.31C241.575 320.403 240.938 319.328 240.546 318.155C240.154 316.982 240.017 315.74 240.144 314.51L256.456 133.38C256.752 130.766 257.993 128.351 259.947 126.59C261.9 124.829 264.43 123.843 267.061 123.818L569.631 124.088C570.867 124.054 572.096 124.285 573.236 124.764C574.375 125.243 575.4 125.96 576.24 126.866C577.081 127.773 577.718 128.849 578.11 130.021C578.502 131.194 578.639 132.437 578.513 133.666L562.201 314.796C561.905 317.41 560.663 319.825 558.71 321.586C556.756 323.347 554.226 324.333 551.596 324.358Z" fill="url(#paint4_linear_212_263)"/>
<path d="M269.058 231.275C269.058 231.275 296.218 225.782 303.528 238.527C310.837 251.271 317.14 275.205 336.588 272.12C356.036 269.034 370.923 206.46 390.042 207.031C409.162 207.602 402.421 248.584 423.232 249.156C444.042 249.728 440.341 226.264 454.211 226.918C471.036 227.711 464.764 276.331 486.702 276.904C508.64 277.477 512.22 212.682 545.384 213.819" stroke="white" stroke-width="7.56507" stroke-miterlimit="10" stroke-linecap="round"/>
<path d="M284.506 154.154L337.739 154.201" stroke="white" stroke-width="11.9991" stroke-miterlimit="10" stroke-linecap="round"/>
<path opacity="0.4" d="M282.308 178.556L392.318 178.654" stroke="white" stroke-width="11.9991" stroke-miterlimit="10" stroke-linecap="round"/>
<path d="M179.307 323.46L218.121 306.363L257.814 279.268C268.253 272.143 290.053 268.933 297.901 278.839C305.884 288.915 296.917 308.847 287.235 317.302L250.552 349.335L231.477 372.943L179.307 323.46Z" fill="#FFCCB3"/>
<path d="M258.194 289.557C258.194 289.557 263.434 309.763 277.02 313.259L291.43 301.085C292.891 299.997 294.115 298.623 295.028 297.047C295.941 295.47 296.523 293.724 296.739 291.916C296.955 290.107 296.801 288.273 296.285 286.526C295.769 284.779 294.903 283.155 293.739 281.754C291.706 279.306 288.87 277.66 285.736 277.11C282.602 276.561 279.374 277.143 276.63 278.753L258.194 289.557Z" stroke="#FF967C" stroke-width="3" stroke-linecap="round"/>
<path d="M74.38 383.062C74.38 383.062 66.858 436.857 132.316 467.66C132.316 467.66 85.294 510.794 67.165 518.047C49.037 525.299 -19.0761 451.182 5.14995 409.114C11.9439 397.317 74.38 383.062 74.38 383.062Z" fill="#5298E9"/>
<path d="M322.401 326.425C322.401 326.425 296.888 326.945 288.007 331.593L281.597 324.118L320.929 324.119L322.401 326.425Z" fill="#FCBA9F"/>
<path d="M792.16 324.358H610.755C597.09 324.358 586.993 313.28 588.203 299.615L612.542 24.742C613.752 11.078 625.81 0 639.475 0H820.88C834.55 0 844.64 11.078 843.43 24.742L819.09 299.615C817.88 313.28 805.82 324.358 792.16 324.358Z" fill="#FEBB94"/>
<path d="M766.19 155.209C794.92 127.728 797.81 84.1371 772.66 57.8461C747.507 31.5551 703.831 32.5191 675.106 60.0002C646.382 87.4812 643.486 131.072 668.639 157.363C693.792 183.655 737.469 182.69 766.19 155.209Z" fill="white"/>
<path d="M724.493 109.744L770.03 151.276C770.03 151.276 780.39 140.141 783.48 132.183L724.493 109.744Z" fill="url(#paint5_linear_212_263)"/>
<path d="M727.525 29.9629L721.054 103.04C720.91 104.371 721.159 105.715 721.77 106.907C722.381 108.098 723.328 109.084 724.493 109.744L786.28 144.142C786.28 144.142 822.97 41.7829 727.525 29.9629Z" fill="url(#paint6_linear_212_263)"/>
<path d="M630.814 227.069H705.966" stroke="white" stroke-width="12" stroke-miterlimit="10" stroke-linecap="round"/>
<path d="M625.313 289.201H700.465" stroke="white" stroke-width="12" stroke-miterlimit="10" stroke-linecap="round"/>
<path opacity="0.4" d="M628.095 257.784H783.4" stroke="white" stroke-width="12" stroke-miterlimit="10" stroke-linecap="round"/>
<path d="M569.065 526.855C569.065 526.855 593.29 520.394 606.183 534.277C606.183 534.277 629.357 530.069 638.779 542.961C638.779 542.961 659.324 544.151 665.274 552.531C670.222 553.214 674.901 555.195 678.834 558.274C682.767 561.352 685.815 565.418 687.666 570.057C693.284 583.298 688.519 659.849 682.935 687.28C681.539 694.141 682.017 701.251 684.32 707.863L698.524 748.682L600.247 789.765L576.915 728.909C576.915 728.909 548.514 683.268 544.456 675.153C540.399 667.039 547.276 599.706 533.425 557.643L569.065 526.855Z" fill="#FFCCB3"/>
<path d="M589.591 761.971L586.756 754.576C586.756 754.576 637.751 751.316 684.32 707.863L688.774 720.663C688.774 720.663 683.022 747.103 656.834 759.564C630.645 772.026 589.591 761.971 589.591 761.971Z" fill="#FCBA9F"/>
<path d="M589.591 761.971C589.591 761.971 651.318 767.593 688.774 720.663C688.774 720.663 702.603 727.913 723.838 780.994C730.36 797.298 621.451 855.345 603.842 831.216C603.842 831.216 588.64 799.059 589.591 761.971Z" fill="#5661AE"/>
<path d="M539.465 583.035C539.465 583.035 537.336 594.331 527.269 594.332C520.701 594.332 492.232 585.731 473.23 579.751C468.06 578.124 462.514 578.124 457.344 579.751C452.174 581.378 447.628 584.554 444.322 588.848L443.167 590.348C442.593 591.091 442.177 591.943 441.942 592.853C441.707 593.762 441.66 594.709 441.802 595.637C441.944 596.565 442.273 597.455 442.769 598.252C443.265 599.05 443.918 599.738 444.688 600.275C460.775 611.506 504.216 641.988 509.772 647.544C516.61 654.381 554.685 692.713 554.685 692.713L539.465 583.035Z" fill="#FFCCB3"/>
<path d="M537.154 571.717C537.154 571.717 557.731 599.569 554.685 605.666C551.639 611.763 519.732 593.122 519.732 593.122C519.732 593.122 545.479 599.745 537.154 571.717Z" fill="#FCBA9F"/>
<path d="M533.425 557.643L498.8 452.495C497.613 448.888 497.161 445.079 497.473 441.294C497.785 437.51 498.854 433.826 500.616 430.463C502.378 427.099 504.798 424.123 507.731 421.712C510.665 419.301 514.053 417.503 517.694 416.426C520.675 415.545 523.874 415.783 526.691 417.097C529.508 418.411 531.747 420.709 532.986 423.559L581.561 535.218L533.425 557.643Z" fill="#FFCCB3"/>
<path d="M518.41 512.045C519.391 513.657 520.695 515.049 522.239 516.133C523.784 517.218 525.535 517.971 527.385 518.347" stroke="#FF967C" stroke-width="3" stroke-linecap="round"/>
<path d="M530.868 458.217C535.081 456.35 539.728 453.741 541.727 450.696L528.834 420.083C528.558 419.423 528.145 418.83 527.622 418.342C527.099 417.854 526.479 417.483 525.802 417.253C525.125 417.023 524.407 416.94 523.695 417.009C522.983 417.078 522.294 417.297 521.674 417.652C517.086 420.3 511.03 425.078 510.795 431.938L519.515 453.638C519.943 454.698 520.58 455.66 521.388 456.468C522.196 457.276 523.159 457.913 524.218 458.34C525.278 458.768 526.413 458.977 527.556 458.956C528.698 458.935 529.825 458.683 530.868 458.217Z" stroke="#FF967C" stroke-width="3" stroke-linecap="round"/>
<path d="M577.654 526.236L589.591 552.531" stroke="#FF967C" stroke-width="3" stroke-linecap="round"/>
<path d="M606.66 534.815C612.726 543.511 615.977 553.86 615.974 564.464" stroke="#FF967C" stroke-width="3" stroke-linecap="round"/>
<path d="M639.349 543.453C639.349 543.453 645.358 557.234 645.854 568.132" stroke="#FF967C" stroke-width="3" stroke-linecap="round"/>
<path d="M666.115 553.349C668.482 559.164 669.4 565.468 668.789 571.717" stroke="#FF967C" stroke-width="3" stroke-linecap="round"/>
<path d="M470.113 613.131C470.113 613.131 477.223 604.101 474.784 599.572C472.345 595.043 461.496 588.638 455.226 589.335C452.234 589.786 449.347 590.769 446.703 592.239C446.222 592.49 445.816 592.863 445.524 593.321C445.232 593.778 445.064 594.303 445.037 594.845C445.011 595.387 445.126 595.927 445.372 596.41C445.619 596.894 445.987 597.305 446.441 597.602L470.113 613.131Z" stroke="#FF967C" stroke-width="3" stroke-linecap="round"/>
<path d="M347.842 723.234H131.227C130.333 723.251 129.446 723.077 128.625 722.722C127.804 722.367 127.069 721.84 126.47 721.177C125.87 720.514 125.42 719.729 125.15 718.877C124.879 718.025 124.795 717.125 124.903 716.237L133.409 627.75C133.621 625.852 134.516 624.096 135.927 622.809C137.338 621.522 139.168 620.792 141.078 620.754H357.694C358.588 620.736 359.475 620.911 360.295 621.266C361.116 621.62 361.851 622.147 362.451 622.81C363.05 623.474 363.5 624.258 363.771 625.11C364.041 625.963 364.125 626.863 364.018 627.75L355.512 716.237C355.299 718.135 354.404 719.891 352.993 721.178C351.583 722.465 349.752 723.196 347.842 723.234Z" fill="#FEBB94"/>
<path d="M151.563 643.83H285.246" stroke="#EF6A77" stroke-width="11.6898" stroke-miterlimit="10" stroke-linecap="round"/>
<path d="M151.563 643.83H244.46" stroke="white" stroke-width="11.6898" stroke-miterlimit="10" stroke-linecap="round"/>
<path d="M149.563 671.994H283.246" stroke="#EF6A77" stroke-width="11.6898" stroke-miterlimit="10" stroke-linecap="round"/>
<path d="M149.563 671.994H205.103" stroke="white" stroke-width="11.6898" stroke-miterlimit="10" stroke-linecap="round"/>
<path d="M145.192 700.158H278.875" stroke="#EF6A77" stroke-width="11.6898" stroke-miterlimit="10" stroke-linecap="round"/>
<path d="M145.192 700.158H179.157" stroke="white" stroke-width="11.6898" stroke-miterlimit="10" stroke-linecap="round"/>
<path d="M332.567 651.817C336.979 651.817 340.555 648.241 340.555 643.83C340.555 639.418 336.979 635.842 332.567 635.842C328.156 635.842 324.58 639.418 324.58 643.83C324.58 648.241 328.156 651.817 332.567 651.817Z" fill="white"/>
<path d="M329.977 678.749C334.389 678.749 337.965 675.173 337.965 670.762C337.965 666.35 334.389 662.774 329.977 662.774C325.565 662.774 321.989 666.35 321.989 670.762C321.989 675.173 325.565 678.749 329.977 678.749Z" fill="white"/>
<path d="M327.086 708.146C331.497 708.146 335.074 704.569 335.074 700.158C335.074 695.746 331.497 692.17 327.086 692.17C322.674 692.17 319.098 695.746 319.098 700.158C319.098 704.569 322.674 708.146 327.086 708.146Z" fill="white"/>
</g>
<defs>
<linearGradient id="paint0_linear_212_263" x1="389.203" y1="-100.664" x2="673.04" y2="1321.72" gradientUnits="userSpaceOnUse">
<stop stop-color="white"/>
<stop offset="1" stop-color="#94B9FF"/>
</linearGradient>
<linearGradient id="paint1_linear_212_263" x1="422.724" y1="141.221" x2="450.245" y2="569.637" gradientUnits="userSpaceOnUse">
<stop stop-color="white"/>
<stop offset="1" stop-color="#94B9FF"/>
</linearGradient>
<linearGradient id="paint2_linear_212_263" x1="504.482" y1="360.685" x2="549.499" y2="733.442" gradientUnits="userSpaceOnUse">
<stop stop-color="white"/>
<stop offset="1" stop-color="#94B9FF"/>
</linearGradient>
<linearGradient id="paint3_linear_212_263" x1="407.911" y1="550.219" x2="415.84" y2="769.771" gradientUnits="userSpaceOnUse">
<stop stop-color="white"/>
<stop offset="1" stop-color="#94B9FF"/>
</linearGradient>
<linearGradient id="paint4_linear_212_263" x1="409.328" y1="123.818" x2="409.328" y2="324.358" gradientUnits="userSpaceOnUse">
<stop stop-color="#1C7ED6"/>
<stop offset="1" stop-color="#22B8CF"/>
</linearGradient>
<linearGradient id="paint5_linear_212_263" x1="752.516" y1="109.645" x2="759.28" y2="198.221" gradientUnits="userSpaceOnUse">
<stop stop-color="white"/>
<stop offset="1" stop-color="#94B9FF"/>
</linearGradient>
<linearGradient id="paint6_linear_212_263" x1="757.113" y1="29.9629" x2="757.113" y2="144.142" gradientUnits="userSpaceOnUse">
<stop stop-color="#1C7ED6"/>
<stop offset="1" stop-color="#22B8CF"/>
</linearGradient>
<clipPath id="clip0_212_263">
<rect width="844" height="837" fill="white"/>
</clipPath>
</defs>
</svg>
