<svg width="470" height="604" viewBox="0 0 470 604" fill="none" xmlns="http://www.w3.org/2000/svg">
<g clip-path="url(#clip0_235_345)">
<path d="M27.497 505.379L12.2179 603.498L6.40095 602.592C4.43795 602.286 2.67696 601.214 1.50496 599.609C0.332956 598.005 -0.153041 596.002 0.151959 594.039L13.127 510.722C13.432 508.759 14.505 506.998 16.109 505.826C17.713 504.654 19.7169 504.168 21.6799 504.474L27.497 505.379Z" fill="#5661AE"/>
<path d="M75.2501 521.892L51.3601 514.744L43.7651 548.028L69.9021 556.234L75.2501 521.892Z" fill="#BC775C"/>
<path d="M58.811 552.752L54.394 551.366L65.245 518.899L69.279 520.106L58.811 552.752Z" fill="#93523E"/>
<path d="M54.3891 515.216C54.3891 515.216 45.0291 531.479 50.1871 550.045L18.0321 602.615C15.2361 604.657 10.9891 603.446 8.63009 602.189C8.11309 601.911 7.6971 601.479 7.4371 600.954C7.1771 600.428 7.08809 599.834 7.18109 599.255L21.0501 510.19C21.2811 508.703 22.0851 507.367 23.2911 506.467C24.4961 505.568 26.0071 505.177 27.4971 505.379C33.4621 506.188 42.5381 507.496 46.1081 508.412C51.6271 509.829 54.5361 511.835 54.3891 515.216Z" fill="#1C85E8"/>
<path d="M43.775 561.21L39.054 553.681C38.881 553.406 38.644 553.178 38.363 553.016C38.081 552.854 37.764 552.764 37.44 552.754C37.116 552.743 36.794 552.813 36.502 552.956C36.211 553.099 35.959 553.312 35.77 553.575C35.537 553.898 35.407 554.283 35.397 554.681C35.386 555.079 35.496 555.471 35.712 555.805L41.605 564.954L43.775 561.21Z" fill="white"/>
<path d="M38.424 569.276L33.7479 561.764C33.5759 561.489 33.338 561.261 33.057 561.099C32.775 560.937 32.459 560.847 32.134 560.837C31.81 560.827 31.488 560.896 31.196 561.039C30.905 561.182 30.6539 561.395 30.4639 561.658C30.2309 561.981 30.101 562.367 30.091 562.765C30.081 563.162 30.19 563.554 30.406 563.888L36.1749 572.953L38.424 569.276Z" fill="white"/>
<path d="M32.877 578.345L28.287 570.886C28.115 570.611 27.878 570.383 27.596 570.221C27.315 570.06 26.998 569.97 26.673 569.959C26.349 569.949 26.027 570.018 25.736 570.162C25.444 570.305 25.193 570.517 25.003 570.781C24.771 571.104 24.641 571.489 24.63 571.887C24.62 572.285 24.73 572.676 24.945 573.011L30.687 581.925L32.877 578.345Z" fill="white"/>
<path d="M290.136 590.856H389.438V596.743C389.438 597.727 389.244 598.701 388.867 599.61C388.491 600.519 387.939 601.344 387.244 602.04C386.548 602.735 385.722 603.287 384.814 603.663C383.905 604.04 382.931 604.234 381.947 604.234H297.627C295.64 604.234 293.735 603.444 292.33 602.04C290.926 600.635 290.136 598.73 290.136 596.743V590.856Z" fill="#5661AE"/>
<path d="M299.105 541.131L295.718 565.835L329.775 568.219L333.861 541.131H299.105Z" fill="#BC775C"/>
<path d="M333.508 543.471L332.636 549.252L297.663 551.648L298.784 543.471H333.508Z" fill="#93523E"/>
<path d="M295.719 562.771C295.719 562.771 313.228 569.517 330.779 561.564L387.67 585.248C390.118 587.696 389.575 592.078 388.697 594.603C388.501 595.156 388.139 595.634 387.659 595.972C387.18 596.309 386.607 596.489 386.021 596.486H295.882C294.377 596.487 292.933 595.898 291.859 594.845C290.784 593.792 290.166 592.36 290.136 590.856C290.018 584.838 289.913 575.669 290.27 572C290.82 566.329 292.355 563.146 295.719 562.771Z" fill="#1C85E8"/>
<path d="M342.798 566.181L336.085 572.005C335.84 572.218 335.65 572.488 335.534 572.791C335.417 573.094 335.377 573.421 335.417 573.743C335.457 574.065 335.575 574.372 335.761 574.638C335.947 574.904 336.196 575.12 336.486 575.267C336.84 575.447 337.241 575.516 337.636 575.465C338.03 575.414 338.401 575.245 338.698 574.981L346.831 567.75L342.798 566.181Z" fill="white"/>
<path d="M351.591 570.228L344.888 576.004C344.643 576.217 344.454 576.487 344.337 576.789C344.221 577.092 344.181 577.419 344.22 577.742C344.26 578.064 344.378 578.371 344.564 578.637C344.751 578.903 344.999 579.118 345.289 579.265C345.644 579.446 346.044 579.515 346.439 579.464C346.834 579.413 347.204 579.244 347.501 578.98L355.57 571.885L351.591 570.228Z" fill="white"/>
<path d="M361.405 574.314L354.742 579.996C354.497 580.209 354.307 580.479 354.191 580.781C354.075 581.084 354.034 581.411 354.074 581.734C354.114 582.056 354.232 582.363 354.418 582.629C354.604 582.895 354.853 583.11 355.143 583.257C355.497 583.438 355.898 583.507 356.293 583.456C356.688 583.405 357.058 583.236 357.355 582.972L365.28 575.927L361.405 574.314Z" fill="white"/>
<path d="M240.616 217.355L261.195 176.836C261.195 176.836 248.667 178.473 246.483 170.696C244.299 162.92 305.693 155.962 305.693 155.962C305.693 155.962 300.782 173.152 293.415 175.198L273.155 234.546L240.616 217.355Z" fill="#BC775C"/>
<path d="M243.681 211.319L275.827 226.718L273.154 234.545L241.915 214.797L243.681 211.319Z" fill="#93523E"/>
<path d="M439.682 0.505096L143.766 48.9481C138.688 49.7791 135.246 54.5691 136.077 59.6461L155.4 177.684C156.231 182.762 161.021 186.204 166.099 185.373L462.016 136.93C467.093 136.099 470.536 131.309 469.704 126.232L450.381 8.19409C449.55 3.11609 444.76 -0.325904 439.682 0.505096Z" fill="#FEBB94"/>
<path d="M288.467 74.5151L408.73 54.8281" stroke="white" stroke-width="16.5208" stroke-miterlimit="10" stroke-linecap="round"/>
<path opacity="0.7" d="M297.01 111.031L375.461 98.188" stroke="white" stroke-width="16.5208" stroke-miterlimit="10" stroke-linecap="round"/>
<path d="M216.579 155.057C240.069 155.057 259.112 136.014 259.112 112.523C259.112 89.0333 240.069 69.9902 216.579 69.9902C193.088 69.9902 174.045 89.0333 174.045 112.523C174.045 136.014 193.088 155.057 216.579 155.057Z" stroke="#EF6A77" stroke-width="16.5208" stroke-miterlimit="10"/>
<path d="M258.554 105.652C259.913 113.954 258.78 122.472 255.297 130.13C251.815 137.788 246.14 144.241 238.99 148.674C231.84 153.106 223.537 155.319 215.129 155.032C206.722 154.746 198.588 151.972 191.757 147.063C184.926 142.154 179.703 135.329 176.751 127.452C173.798 119.574 173.248 110.999 175.169 102.809C177.091 94.6188 181.398 87.1818 187.545 81.4398C193.693 75.6978 201.405 71.9069 209.707 70.5479" stroke="white" stroke-width="16.5208" stroke-miterlimit="10" stroke-linecap="round"/>
<path d="M230.438 431.024L242.713 569.958C242.713 599.741 212.326 603.129 202.599 599.619C188.877 594.667 55.981 560.836 55.981 560.836L70.065 517.699L172.063 531.876C172.063 531.876 169.274 502.931 141.922 414.547L230.438 431.024Z" fill="#5661AE"/>
<path d="M151.035 445.161L233.738 468.382L229.088 412.593L141.922 414.547L151.035 445.161Z" fill="#465393"/>
<path d="M229.238 126.63C229.238 126.63 245.616 145.221 250.485 152.746C255.354 160.271 255.529 175.03 245.348 178.793C235.167 182.555 226.839 183.188 211.975 180.411C200.409 178.251 185.416 159.164 189.842 149.426C194.269 139.688 214.852 121.982 229.238 126.63Z" fill="#BC775C"/>
<path d="M232.336 178.64L229.901 210.068L194.268 202.322L210.204 172.665L232.336 178.64Z" fill="#BC775C"/>
<path d="M232.336 181.911H222.648L230.936 196.709" fill="#93523E"/>
<path d="M190.285 200.33L195.6 195.182C196.289 194.514 197.136 194.03 198.063 193.775C198.989 193.52 199.964 193.503 200.898 193.724L230.036 200.625C230.737 200.791 231.384 201.136 231.912 201.626C232.441 202.117 232.833 202.736 233.051 203.423L235.157 210.069L190.285 200.33Z" fill="url(#paint0_linear_235_345)"/>
<path d="M144.136 359.229L138.921 384.498C133.048 423.045 160.686 448.544 202.924 441.595C240.646 435.388 352.385 392.065 352.385 392.065L347.932 323.501L253.995 338.999C253.995 338.999 169.561 323.355 144.136 359.229Z" fill="#5661AE"/>
<path d="M354.93 383.461C371.712 383.461 385.317 369.857 385.317 353.074C385.317 336.292 371.712 322.687 354.93 322.687C338.147 322.687 324.542 336.292 324.542 353.074C324.542 369.857 338.147 383.461 354.93 383.461Z" fill="#5661AE"/>
<path d="M354.93 383.461C371.712 383.461 385.317 369.857 385.317 353.074C385.317 336.292 371.712 322.687 354.93 322.687C338.147 322.687 324.542 336.292 324.542 353.074C324.542 369.857 338.147 383.461 354.93 383.461Z" fill="#5661AE"/>
<path d="M212.326 601.219C229.109 601.219 242.714 587.614 242.714 570.831C242.714 554.049 229.109 540.444 212.326 540.444C195.544 540.444 181.939 554.049 181.939 570.831C181.939 587.614 195.544 601.219 212.326 601.219Z" fill="#5661AE"/>
<path d="M383.834 361.855L341.116 543.471H290.025L324.542 353.074L383.834 361.855Z" fill="#5661AE"/>
<path d="M253.995 338.999L141.483 374.014L144.136 359.228L253.995 338.999Z" fill="#465393"/>
<path d="M279.244 236.404L290.422 244.537L327.751 183.265C327.751 183.265 322.781 163.196 322.439 159.779L334.585 158.048C334.585 158.048 344.423 139.506 347.227 135.839C350.031 132.171 353.267 132.818 354.993 135.839C354.993 135.839 360.386 136.702 361.249 144.036C361.249 144.036 365.995 145.115 367.937 154.607C367.937 154.607 372.035 158.921 371.173 163.667C370.31 168.413 359.523 187.013 357.798 188.931C356.469 190.495 355.244 192.144 354.13 193.869L318.177 280.021C318.177 280.021 309.392 298.865 288.805 291.718L263.28 279.889C251.565 272.298 279.244 236.404 279.244 236.404Z" fill="#BC775C"/>
<path d="M298.058 293.946C309.925 293.946 319.546 284.326 319.546 272.458C319.546 260.59 309.925 250.97 298.058 250.97C286.19 250.97 276.57 260.59 276.57 272.458C276.57 284.326 286.19 293.946 298.058 293.946Z" fill="#BC775C"/>
<path d="M207.991 142.122C207.991 142.122 229.017 135.04 233.222 120.211C237.427 105.383 228.574 97.6359 217.065 105.161C217.065 105.161 208.876 92.1029 194.933 101.178C180.989 110.252 183.645 131.72 184.088 135.925C184.088 135.925 168.374 146.992 175.899 164.476C183.424 181.961 204.072 186.166 204.072 186.166C206.351 182.891 207.982 179.209 208.876 175.321C208.876 175.321 197.498 166.689 204.072 158.279C210.647 149.869 218.172 163.37 218.172 163.37C218.172 163.37 223.926 144.336 207.991 142.122Z" fill="#465393"/>
<path d="M190.285 200.331C190.285 200.331 175.689 207.589 172.382 215.404C169.327 222.626 148.075 317.484 141.566 355.67C141.411 356.575 141.48 357.505 141.768 358.378C142.057 359.25 142.555 360.038 143.219 360.673C143.883 361.308 144.693 361.77 145.578 362.019C146.463 362.267 147.395 362.295 148.292 362.099L253.995 338.999C253.995 338.999 248.825 283.444 250.637 267.14C252.449 250.836 235.157 210.069 235.157 210.069L190.285 200.331Z" fill="url(#paint1_linear_235_345)"/>
<path d="M250.262 274.827L223.613 258.99L251.342 304.605L250.262 274.827Z" fill="#96BAFD"/>
<path d="M290.422 244.536L298.182 249.945L305.693 219.471L290.422 244.536Z" fill="#93523E"/>
<path d="M235.157 210.069C235.157 210.069 277.572 233.255 282.721 237.058C283.389 237.55 283.859 238.265 284.046 239.074C284.233 239.882 284.124 240.731 283.741 241.466L264.26 278.869C264.041 279.289 263.739 279.66 263.372 279.96C263.005 280.259 262.581 280.48 262.125 280.61C261.67 280.739 261.192 280.775 260.723 280.713C260.253 280.652 259.801 280.496 259.394 280.254L209.956 250.874C209.956 250.874 207.325 211.765 235.157 210.069Z" fill="url(#paint2_linear_235_345)"/>
<path d="M229.745 154.518C230.761 153.759 230.646 151.886 229.488 150.335C228.33 148.784 226.567 148.141 225.55 148.9C224.534 149.659 224.649 151.532 225.807 153.083C226.966 154.635 228.729 155.277 229.745 154.518Z" fill="#080B09"/>
<path d="M243.683 143.971C244.699 143.212 244.584 141.339 243.426 139.788C242.268 138.237 240.505 137.594 239.488 138.353C238.472 139.112 238.587 140.985 239.745 142.536C240.904 144.088 242.667 144.73 243.683 143.971Z" fill="#080B09"/>
<path d="M238.041 146.86C238.041 146.86 237.799 151.449 240.611 150.24C243.256 148.994 245.516 149.852 243.858 153.334" stroke="#93523E" stroke-width="1.20877" stroke-linecap="round" stroke-linejoin="round"/>
<path d="M244.788 156.609C243.191 157.477 239.998 159.213 237.891 160.405C237.764 160.475 237.659 160.579 237.586 160.705C237.514 160.831 237.478 160.974 237.481 161.12C237.485 161.265 237.528 161.406 237.606 161.529C237.685 161.651 237.795 161.75 237.926 161.814C240.88 163.09 247.208 164.948 245.88 157.204C245.879 157.078 245.844 156.953 245.779 156.845C245.714 156.736 245.62 156.646 245.509 156.586C245.398 156.525 245.272 156.495 245.145 156.499C245.018 156.503 244.895 156.541 244.788 156.609Z" fill="white"/>
<path d="M217.758 149.933L218.054 150.174C218.455 150.564 218.994 150.78 219.553 150.774C220.113 150.768 220.647 150.542 221.04 150.143L227.609 143.121C227.941 142.794 228.138 142.354 228.161 141.889C228.185 141.424 228.032 140.967 227.735 140.609C227.563 140.381 227.344 140.192 227.094 140.054C226.843 139.917 226.567 139.834 226.282 139.812C225.997 139.789 225.711 139.827 225.442 139.924C225.173 140.02 224.928 140.172 224.722 140.37L217.857 147.152C217.664 147.325 217.507 147.536 217.397 147.771C217.288 148.007 217.226 148.262 217.217 148.521C217.208 148.781 217.251 149.04 217.344 149.282C217.437 149.525 217.578 149.746 217.758 149.933Z" fill="#080B09"/>
<path d="M241.635 130.004L232.601 133.394C232.335 133.497 232.093 133.656 231.893 133.86C231.693 134.064 231.538 134.307 231.439 134.575C231.341 134.843 231.3 135.129 231.319 135.414C231.339 135.699 231.419 135.977 231.554 136.228C231.754 136.649 232.105 136.979 232.538 137.153C232.97 137.327 233.451 137.332 233.887 137.167L243.017 134.148C243.543 133.958 243.973 133.568 244.213 133.063C244.453 132.557 244.483 131.978 244.297 131.45L244.202 131.08C244.108 130.838 243.966 130.617 243.785 130.431C243.603 130.245 243.387 130.097 243.147 129.997C242.908 129.897 242.65 129.845 242.391 129.846C242.131 129.848 241.874 129.901 241.635 130.004Z" fill="#080B09"/>
</g>
<defs>
<linearGradient id="paint0_linear_235_345" x1="211.604" y1="193.531" x2="213.012" y2="228.866" gradientUnits="userSpaceOnUse">
<stop stop-color="white"/>
<stop offset="1" stop-color="#94B9FF"/>
</linearGradient>
<linearGradient id="paint1_linear_235_345" x1="194.939" y1="199.946" x2="247.833" y2="538.985" gradientUnits="userSpaceOnUse">
<stop stop-color="white"/>
<stop offset="1" stop-color="#94B9FF"/>
</linearGradient>
<linearGradient id="paint2_linear_235_345" x1="245.164" y1="209.901" x2="260.645" y2="359.908" gradientUnits="userSpaceOnUse">
<stop stop-color="white"/>
<stop offset="1" stop-color="#94B9FF"/>
</linearGradient>
<clipPath id="clip0_235_345">
<rect width="470" height="604" fill="white"/>
</clipPath>
</defs>
</svg>
